<svg data-v-423bf9ae="" xmlns="http://www.w3.org/2000/svg" viewBox="0 0 154.7741888974469 60" class="font"><!----><defs data-v-423bf9ae=""><linearGradient data-v-423bf9ae="" gradientTransform="rotate(25)" id="5232a760-403d-4b50-8ccb-d5b587ae637a" x1="0%" y1="0%" x2="100%" y2="0%"><stop data-v-423bf9ae="" offset="0%" style="stop-color: rgb(87, 93, 96); stop-opacity: 1;"></stop><stop data-v-423bf9ae="" offset="100%" style="stop-color: rgb(246, 225, 205); stop-opacity: 1;"></stop></linearGradient></defs><!----><g data-v-423bf9ae="" id="2e8af068-4c8a-4dff-88e2-c20532a1062b" fill="#ffffff" transform="matrix(6.451612949371338,0,0,6.451612949371338,-6.58064603805542,-23.677417755126953)"><path d="M6.50 3.67L6.50 3.67L9.52 3.67Q9.54 3.94 9.59 4.57Q9.65 5.20 9.70 5.73Q9.75 6.25 9.82 6.94Q9.90 7.63 9.99 8.16Q10.09 8.69 10.21 9.16L10.21 9.16Q10.45 10.16 10.83 10.16L10.83 10.16Q10.95 10.16 11.09 10.06L11.09 10.06Q10.58 11.06 9.95 12.52L9.95 12.52Q9.91 12.63 9.70 12.80Q9.50 12.97 9.35 12.97L9.35 12.97L7.35 12.97Q7.20 10.98 6.78 8.46Q6.37 5.93 5.90 4.12L5.90 4.12Q5.90 4.03 6.12 3.85Q6.34 3.67 6.50 3.67ZM11.57 4.89L11.57 4.89L11.55 4.12Q11.55 4.03 11.77 3.85Q11.99 3.67 12.15 3.67L12.15 3.67L14.33 3.67Q13.54 5.00 11.57 9.09L11.57 9.09Q11.53 9.20 11.33 9.37Q11.13 9.54 10.97 9.54L10.97 9.54Q11.57 7.39 11.57 4.89ZM1.61 3.67L1.61 3.67L4.63 3.67Q5.02 7.46 5.40 8.81Q5.78 10.16 6.17 10.16L6.17 10.16Q6.31 10.16 6.44 10.06L6.44 10.06Q6.00 10.92 5.30 12.52L5.30 12.52Q5.26 12.63 5.06 12.80Q4.85 12.97 4.71 12.97L4.71 12.97L2.70 12.97Q2.42 10.91 1.94 8.38Q1.47 5.84 1.02 4.12L1.02 4.12Q1.02 4.03 1.24 3.85Q1.46 3.67 1.61 3.67ZM18.00 12.97L18.00 12.97L14.89 12.97Q15.85 8.83 16.23 4.12L16.23 4.12Q16.23 4.03 16.45 3.85Q16.67 3.67 16.83 3.67L16.83 3.67L19.93 3.67Q19.43 5.78 19.09 8.18L19.09 8.18Q20.03 8.37 20.30 8.47L20.30 8.47Q20.30 8.89 20.14 9.09L20.14 9.09Q19.43 9.15 18.94 9.25L18.94 9.25Q18.72 10.92 18.59 12.52L18.59 12.52Q18.59 12.61 18.38 12.79Q18.16 12.97 18.00 12.97ZM23.08 12.97L23.08 12.97L19.97 12.97Q20.92 8.91 21.31 4.12L21.31 4.12Q21.31 4.03 21.53 3.85Q21.75 3.67 21.91 3.67L21.91 3.67L25.01 3.67Q24.06 7.72 23.67 12.52L23.67 12.52Q23.67 12.61 23.45 12.79Q23.23 12.97 23.08 12.97Z"></path></g><!----><!----></svg>